<svg id="Layer_1" data-name="Layer 1" xmlns="http://www.w3.org/2000/svg" viewBox="0 0 1000 1000"><defs><style>.cls-1,.cls-2{fill:#1d85a8;}.cls-2{font-size:118px;font-family:Ubuntu-Light, Ubuntu;}</style></defs><title>squad game</title><path class="cls-1" d="M280.28,669.78c29.41,0,58.83.35,88.24-.09,33.44-.5,59.76-15.24,76.23-44.1C460,598.89,461,570.47,448,541.9a85.68,85.68,0,0,0-30.2-35.85c-10.34-7.06-21.72-12.17-34.45-13.71-7.1-.86-8.65-2.84-8.67-10q-.07-26.68,0-53.36c0-6.94,1.54-8.4,8.57-7.79,22.62,2,43.42,9.43,63.21,20.39a150.36,150.36,0,0,1,46,38.92c12,15.32,21.54,32.05,26.7,51,3.07,11.32,5.33,23,9.89,33.74,12.45,29.24,32.71,52.5,59.06,70a203.9,203.9,0,0,0,38,20.23,162.85,162.85,0,0,0,58.87,11c6,0,12,.08,18,0,4.74-.05,6.64,2.43,6.64,6.9q0,27.19,0,54.38c0,6.95-1.92,9.19-8.64,8.88-18.8-.88-37.73-.93-56.35-3.33-20.77-2.68-40.6-9.44-59.71-18.36-17-7.93-33-17.29-47.43-29.17-8.91-7.34-17-15.72-25.24-23.82-3.18-3.12-5.73-3.09-8.24,1.35-7.62,13.46-17.52,25.08-28.82,35.47a164.24,164.24,0,0,1-38.09,26c-23.81,11.92-48.78,16.12-75,16-55.65-.25-111.31-.11-167-.13-13.52,0-13.7,0-14-13.52-.31-16.36-.35-32.72-.33-49.08,0-6.61,2.55-8.72,9.16-8.71q45.17.06,90.34,0Z"/><path class="cls-1" d="M393.79,259.12h69.74c6.73,0,9.24,2.36,9.28,9.24.1,18.31.06,36.63.16,54.94,0,4.84-2.4,7.24-7,7.38-5.1.15-10.21,0-15.32,0-38.75,0-77.49-.08-116.24,0-24.65.08-46.18,8.43-63.79,25.79-15.79,15.56-24.4,34.7-25.81,56.8-2,30.83,8.41,56.8,32.27,76.67,15.89,13.24,34.45,20.13,55.36,19.87,6.91-.08,8.94,1.82,9,9.17q0,26.42,0,52.83c0,8-1.7,9.52-9.69,9.13a182.92,182.92,0,0,1-52.14-10.16c-30.37-10.7-55.06-29.07-74.63-54.59a149.59,149.59,0,0,1-25.11-49.57c-7.29-25.13-9.12-50.77-3.63-76.76,3.82-18.08,9.84-35.26,19.22-51.05,9.48-16,21-30.52,35.89-41.83,10-7.62,20.46-15,31.6-20.76,13.22-6.84,27.28-12.48,42.37-13.8,16.63-1.46,33.32-2.4,50-3,12.84-.47,25.71-.09,38.57-.09Z"/><path class="cls-1" d="M827,601.92q0,63.12,0,126.23c0,6.19-2.55,8.6-8.65,8.57q-26.14-.12-52.29-.12c-6.16,0-8-1.69-8-7.62q0-88.73.09-177.46c0-14.9,2.89-14.51-14.28-14.45-34.86.13-69.72.08-104.58.12-6.48,0-7.9-1.31-7.91-7.53q0-27.47,0-54.93c0-7.54,1.46-8.65,9.09-8.64q81.6.14,163.21.1c5.1,0,10.21-.11,15.31-.19,5.37-.08,7.5,1.65,7.72,7,.27,6.5.17,13,.17,19.54q0,54.67,0,109.33Z"/><path class="cls-1" d="M744.25,265.56q36.44,0,72.88,0c7.54,0,9.81,2.14,9.81,9.67q0,26.67,0,53.34c0,5.81-2.2,7.85-8.05,7.85-44.19,0-88.38-.12-132.57,0-25.3,0-49.76,4.72-72.66,15.64a165.28,165.28,0,0,0-57.25,44.77,167.3,167.3,0,0,0-31,58.72c-.42,1.41-2.06,3.24-3.31,3.4s-3.21-1.2-4.13-2.43c-9.93-13.22-22.18-24-35.53-33.54-3.55-2.55-7.36-4.75-11.06-7.08-4-2.53-5-6.08-2.65-11,16.46-34.64,38.75-64.65,69.22-88.41a233.07,233.07,0,0,1,147.71-50.53c19.54.11,39.08,0,58.63,0Z"/><text class="cls-2" transform="translate(180.77 847.72)">Squad Game</text></svg>